<?xml version="1.0" encoding="utf-8"?>
<!-- Generator: Adobe Illustrator 22.0.0, SVG Export Plug-In . SVG Version: 6.00 Build 0)  -->
<svg version="1.1" id="Layer_1" xmlns="http://www.w3.org/2000/svg" xmlns:xlink="http://www.w3.org/1999/xlink" x="0px" y="0px"
	 viewBox="0 0 225.2 53.5" style="enable-background:new 0 0 225.2 53.5;" xml:space="preserve">
<style type="text/css">
	.st0{clip-path:url(#SVGID_2_);}
	.st1{clip-path:url(#SVGID_4_);fill:url(#SVGID_5_);}
	.st2{clip-path:url(#SVGID_2_);fill:#FFFFFF;}
	.st3{clip-path:url(#SVGID_2_);fill:#EE4037;}
</style>
<g>
	<defs>
		<rect id="SVGID_1_" x="0.3" y="0.1" width="225.1" height="59.4"/>
	</defs>
	<clipPath id="SVGID_2_">
		<use xlink:href="#SVGID_1_"  style="overflow:visible;"/>
	</clipPath>
	<g class="st0">
		<defs>
			<path id="SVGID_3_" d="M113.2-146.6c-97.8,0-177,44.7-177,99.9s79.2,99.9,177,99.9s177-44.7,177-99.9S211-146.6,113.2-146.6"/>
		</defs>
		<clipPath id="SVGID_4_">
			<use xlink:href="#SVGID_3_"  style="overflow:visible;"/>
		</clipPath>
		<linearGradient id="SVGID_5_" gradientUnits="userSpaceOnUse" x1="113.2414" y1="53.1456" x2="113.2414" y2="-146.5898">
			<stop  offset="0" style="stop-color:#09A730"/>
			<stop  offset="7.728302e-02" style="stop-color:#0CAA3C"/>
			<stop  offset="0.2597" style="stop-color:#13AF52"/>
			<stop  offset="0.459" style="stop-color:#17B362"/>
			<stop  offset="0.6858" style="stop-color:#1AB56B"/>
			<stop  offset="1" style="stop-color:#1BB66E"/>
		</linearGradient>
		<rect x="-63.8" y="-146.6" class="st1" width="354" height="199.7"/>
	</g>
	<path class="st2" d="M101.3,28l1.9,15.4h-0.9c-2,0-3.7-1.5-4-3.5L97,29.7h-1.5v-4.4h0.9l0,0l0,0h0.6c1,0,1.7-0.8,1.7-1.7v-6
		c0-1-0.8-1.7-1.7-1.7h-1.6c-0.2-1.5-0.9-2.9-2.1-4c-0.2-0.2-0.3-0.3-0.5-0.5h4.2c3.4,0,6.2,2.8,6.2,6.2v6
		C103.2,25.3,102.5,26.9,101.3,28"/>
	<path class="st2" d="M104.5,11.4L104.5,11.4v32h4.6V16C109.1,13.5,107,11.4,104.5,11.4"/>
	<path class="st2" d="M92.9,13c-1-1.1-2.4-1.6-4.2-1.6c-1.8,0-3.2,0.5-4.2,1.6c-1,1-1.5,2.5-1.5,4.4v20.1c0,1.9,0.5,3.3,1.5,4.4
		c1,1.1,2.4,1.6,4.2,1.6c1.8,0,3.2-0.5,4.2-1.6c1-1,1.5-2.5,1.5-4.4V17.4C94.4,15.5,93.9,14,92.9,13 M90,37.6c0,1.4-0.6,1.6-1.3,1.6
		c-0.6,0-1.3-0.2-1.3-1.6V17.2c0-1.4,0.6-1.6,1.3-1.6c0.6,0,1.3,0.2,1.3,1.6V37.6z"/>
	<path class="st2" d="M145.7,11.4V16h-3.4v27.4c-0.6,0-1.2-0.1-1.7-0.3c-1.2-0.5-2.1-1.4-2.6-2.6c0,0,0,0,0,0
		c-0.1-0.1-0.1-0.3-0.1-0.4c-0.1-0.3-0.1-0.6-0.2-0.9c0-0.1,0-0.2,0-0.4V16h-5.6c0.2-1.2,0.6-2.2,1.4-3c1-1.1,2.4-1.6,4.2-1.6H145.7
		z"/>
	<path class="st2" d="M132.1,17.2v12.5l-5-18.5H121v26.5h4.4v-18l5.2,19.1c0.7,2.7,3.1,4.5,5.9,4.5V17.2H132.1z"/>
	<path class="st3" d="M114.9,39.1v-9.5h3.2v-4.4h-3.2v-9.6h4.9v-4.2h-9.5v27.3c0,2.5,1.9,4.5,4.3,4.6c0.1,0,0.2,0,0.3,0h10.5v-4.3
		H114.9z"/>
</g>
</svg>
